<svg xmlns="http://www.w3.org/2000/svg" width="252.2" height="249.1" viewBox="0 0 252.2 249.1"><ellipse cx="74.8" cy="44.3" rx="44.8" ry="25.1" transform="rotate(-60 74.758 44.316)"/><ellipse cx="208.7" cy="168.1" rx="44.8" ry="25.1" transform="rotate(-25.2 208.798 168.096)"/><ellipse cx="155.5" cy="39.7" rx="44.8" ry="29.2" transform="rotate(-52.4 155.538 39.679)"/><ellipse cx="213.1" cy="90.7" rx="44.8" ry="29.2" transform="rotate(-40.1 212.948 90.758)"/><path d="M151 102.2a50.9 50.9 0 0 0-37.4-15.1 48.7 48.7 0 0 0-25.9 8.2c-6.1 4-20 9.3-50.9 9.3-21.2 0-30.7 10.1-34.7 21.8-7.9 23.2 6.9 47.9 30.8 53.2 2.9.6 5.9 1.1 9.2 1.5C70.3 184.5 70 206 69 213.4a22.5 22.5 0 0 0 1.4 11.5 26.3 26.3 0 0 0 11.7 12.6l2.1 1.3c7.2 4.8 56.1 34.7 61.9-37 .2-1.6.2-3.3.3-4.9.6-25 10.5-40.5 10.5-40.5s19.5-28.9-5.9-54.2zm-37.8 86.3H97v-57H83v-13h30.2z"/><path fill="#fff" d="M83 131.5h14v57h16.2v-70H83v13z"/></svg>