<svg xmlns="http://www.w3.org/2000/svg" width="252.2" height="249.1" viewBox="0 0 252.2 249.1"><ellipse cx="74.8" cy="44.3" rx="44.8" ry="25.1" transform="rotate(-60 74.758 44.316)"/><ellipse cx="208.7" cy="168.1" rx="44.8" ry="25.1" transform="rotate(-25.2 208.798 168.096)"/><ellipse cx="155.5" cy="39.7" rx="44.8" ry="29.2" transform="rotate(-52.4 155.538 39.679)"/><ellipse cx="213.1" cy="90.7" rx="44.8" ry="29.2" transform="rotate(-40.1 212.948 90.758)"/><path d="M151 102.2a50.9 50.9 0 0 0-37.4-15.1 48.7 48.7 0 0 0-25.9 8.2c-6.1 4-20 9.3-50.9 9.3-21.2 0-30.7 10.1-34.7 21.8-7.9 23.2 6.9 47.9 30.8 53.2 2.9.6 5.9 1.1 9.2 1.5C70.3 184.5 70 206 69 213.4a22.5 22.5 0 0 0 1.4 11.5 26.3 26.3 0 0 0 11.7 12.6l2.1 1.3c7.2 4.8 56.1 34.7 61.9-37 .2-1.6.2-3.3.3-4.9.6-25 10.5-40.5 10.5-40.5s19.5-28.9-5.9-54.2zm-25 71.2a19.2 19.2 0 0 1-8.8 7.4c-3.9 1.9-8.7 2.8-14.4 2.8a48.7 48.7 0 0 1-13.1-1.8 33.1 33.1 0 0 1-10.9-4.9l5.6-11.2a27.6 27.6 0 0 0 8.4 4.2 31.1 31.1 0 0 0 9.6 1.5c3.7 0 6.6-.7 8.7-2.2a6.7 6.7 0 0 0 3.1-5.9c0-5.2-3.9-7.8-11.8-7.8h-6.6v-9.6l12.9-14.7H81.9v-11.7H126v9.5l-14.2 16.2c5.5.9 9.7 2.9 12.7 6.1a17.2 17.2 0 0 1 4.4 12 19.1 19.1 0 0 1-2.9 10.1z"/><path fill="#fff" d="M111.8 145.2L126 129v-9.5H81.9v11.7h26.8l-12.9 14.7v9.6h6.6c7.9 0 11.8 2.6 11.8 7.8a6.7 6.7 0 0 1-3.1 5.9c-2.1 1.5-5 2.2-8.7 2.2a31.1 31.1 0 0 1-9.6-1.5 27.6 27.6 0 0 1-8.4-4.2l-5.6 11.2a33.1 33.1 0 0 0 10.9 4.9 48.7 48.7 0 0 0 13.1 1.8c5.7 0 10.5-.9 14.4-2.8a18.9 18.9 0 0 0 11.7-17.5 17.2 17.2 0 0 0-4.4-12c-3-3.2-7.2-5.2-12.7-6.1z"/></svg>