<svg xmlns="http://www.w3.org/2000/svg" width="252.2" height="249.1" viewBox="0 0 252.2 249.1"><ellipse cx="74.8" cy="44.3" rx="44.8" ry="25.1" transform="rotate(-60 74.758 44.316)"/><ellipse cx="208.7" cy="168.1" rx="44.8" ry="25.1" transform="rotate(-25.2 208.798 168.096)"/><ellipse cx="155.5" cy="39.7" rx="44.8" ry="29.2" transform="rotate(-52.4 155.538 39.679)"/><ellipse cx="213.1" cy="90.7" rx="44.8" ry="29.2" transform="rotate(-40.1 212.948 90.758)"/><path d="M151 102.2a50.9 50.9 0 0 0-37.4-15.1 48.7 48.7 0 0 0-25.9 8.2c-6.1 4-20 9.3-50.9 9.3-21.2 0-30.7 10.1-34.7 21.8-7.9 23.2 6.9 47.9 30.8 53.2 2.9.6 5.9 1.1 9.2 1.5C70.3 184.5 70 206 69 213.4a22.5 22.5 0 0 0 1.4 11.5 26.3 26.3 0 0 0 11.7 12.6l2.1 1.3c7.2 4.8 56.1 34.7 61.9-37 .2-1.6.2-3.3.3-4.9.6-25 10.5-40.5 10.5-40.5s19.5-28.9-5.9-54.2zm-25.8 76.4H77.6v-9.5l24.3-22.9a28.2 28.2 0 0 0 5.3-6.3 11.8 11.8 0 0 0 1.3-5.3 6.7 6.7 0 0 0-2.6-5.8c-1.7-1.4-4.2-2-7.5-2a17.8 17.8 0 0 0-7.4 1.5 14.4 14.4 0 0 0-5.6 4.8l-10.6-6.9a25.1 25.1 0 0 1 10.1-8.6 35.1 35.1 0 0 1 14.9-3.1 31 31 0 0 1 12.3 2.3 19.1 19.1 0 0 1 8.2 6.5 17.1 17.1 0 0 1 2.9 9.8 21.3 21.3 0 0 1-2.2 9.7q-2.1 4.5-8.4 10.2l-14.4 13.7h27z"/><path fill="#fff" d="M112.6 153q6.3-5.7 8.4-10.2a21.3 21.3 0 0 0 2.2-9.7 17.1 17.1 0 0 0-2.9-9.8 19.1 19.1 0 0 0-8.2-6.5 31 31 0 0 0-12.3-2.3 35.1 35.1 0 0 0-14.9 3.1 25.1 25.1 0 0 0-10.1 8.6l10.6 6.9a14.4 14.4 0 0 1 5.6-4.8 17.8 17.8 0 0 1 7.4-1.5c3.3 0 5.8.6 7.5 2a6.7 6.7 0 0 1 2.6 5.8 11.8 11.8 0 0 1-1.3 5.3 28.2 28.2 0 0 1-5.3 6.3l-24.3 22.9v9.5h47.6v-11.9h-27z"/></svg>